<?xml version="1.0" standalone="no"?>
<!DOCTYPE svg PUBLIC "-//W3C//DTD SVG 20010904//EN"
 "http://www.w3.org/TR/2001/REC-SVG-20010904/DTD/svg10.dtd">
<svg version="1.0" xmlns="http://www.w3.org/2000/svg"
 width="512.000000pt" height="512.000000pt" viewBox="0 0 512.000000 512.000000"
 preserveAspectRatio="xMidYMid meet">
<metadata>
Created by potrace 1.14, written by Peter Selinger 2001-2017
</metadata>
<g transform="translate(0.000000,512.000000) scale(0.100000,-0.100000)"
fill="#000000" stroke="none">
<path d="M0 2560 l0 -2560 2560 0 2560 0 0 2560 0 2560 -2560 0 -2560 0 0
-2560z m4234 1880 c147 -17 184 -50 205 -180 54 -329 -104 -917 -380 -1425
-89 -163 -233 -381 -340 -516 -99 -126 -292 -320 -411 -415 l-88 -70 -5 -119
c-3 -66 -13 -161 -24 -210 -85 -409 -426 -702 -945 -814 -112 -25 -147 -21
-177 17 -25 32 -23 61 11 242 27 141 32 385 11 500 -32 177 -96 304 -211 420
-60 61 -94 85 -170 123 -222 110 -474 131 -843 71 -124 -20 -151 -15 -180 34
-19 32 -19 36 -3 120 22 109 83 295 131 396 57 121 146 244 242 337 184 178
391 259 669 263 l110 1 50 65 c78 102 299 325 414 417 482 387 1165 689 1680
742 121 12 154 12 254 1z m-2524 -2830 c-25 -100 -93 -175 -206 -227 -45 -21
-79 -28 -144 -31 -77 -4 -95 -1 -193 32 -127 42 -155 44 -224 11 -39 -18 -60
-36 -83 -71 -16 -27 -30 -54 -30 -61 0 -7 -5 -13 -11 -13 -9 0 -10 22 -6 76
10 136 73 225 201 285 123 58 217 58 363 2 145 -55 249 -24 308 92 l30 59 3
-54 c2 -30 -2 -75 -8 -100z m-132 -457 c-3 -69 -10 -99 -30 -139 -67 -128
-257 -221 -400 -194 -28 6 -94 24 -147 41 -101 32 -144 33 -200 4 -40 -20 -89
-74 -103 -112 -20 -56 -31 -38 -25 43 12 166 122 281 304 319 82 17 116 13
255 -31 127 -40 147 -41 214 -10 57 26 84 56 111 121 10 25 20 45 22 45 2 0 1
-39 -1 -87z"/>
<path d="M3980 4245 c-8 -2 -49 -9 -90 -15 -436 -69 -999 -325 -1425 -648
-130 -99 -340 -309 -443 -443 -45 -59 -89 -110 -98 -113 -8 -3 -75 -6 -147 -6
-73 0 -161 -5 -196 -11 -261 -42 -463 -209 -596 -492 -48 -102 -92 -233 -82
-243 3 -3 49 -1 101 5 212 25 462 7 630 -46 154 -48 268 -114 375 -217 212
-204 302 -469 287 -841 -3 -88 -11 -185 -16 -214 -5 -30 -7 -57 -4 -60 8 -9
177 50 259 91 124 62 207 122 282 202 153 164 203 308 203 586 0 157 -4 147
116 238 146 109 318 279 443 437 292 367 553 916 640 1344 28 138 43 312 34
386 l-8 60 -125 1 c-69 1 -132 1 -140 -1z m-698 -606 c167 -35 299 -156 350
-322 16 -54 20 -87 16 -161 -3 -84 -8 -102 -42 -170 -144 -293 -518 -356 -746
-127 -95 95 -151 246 -136 366 36 283 288 470 558 414z"/>
<path d="M3080 3434 c-93 -40 -160 -147 -160 -254 1 -108 59 -198 159 -243 56
-26 158 -28 212 -5 50 22 116 83 141 131 65 129 5 302 -126 363 -61 28 -170
32 -226 8z"/>
</g>
</svg>
