<svg width="491.225" height="92.21" viewBox="0 0 163.742 30.737" xml:space="preserve" xmlns="http://www.w3.org/2000/svg">
    <path style="display:inline;fill:none;fill-opacity:1;stroke:none;stroke-width:16.1407;stroke-dasharray:none;stroke-opacity:1" d="M172.818 42.415h161.195v30.737H172.818z" transform="translate(-172.818 -42.415)"/>
    <path style="display:inline;fill:none;fill-opacity:1;stroke:none;stroke-width:7.04822;stroke-dasharray:none;stroke-opacity:1" d="M172.818 42.415h30.737v30.737h-30.737z" transform="translate(-172.818 -42.415)"/>
    <g style="font-style:italic;font-size:24.9718px;line-height:0;font-family:'.DecoType Naskh PUA';-inkscape-font-specification:'.DecoType Naskh PUA Italic';fill:#f9f9f9;stroke-width:104.05" aria-label="rocketicons">
        <path style="font-style:normal;font-family:Quicksand;-inkscape-font-specification:Quicksand" d="M207.006 65.646q-.35 0-.55-.225-.199-.225-.199-.525V53.71q0-.3.2-.524.225-.225.55-.225.324 0 .524.225.224.224.224.524v3.746l-.374.075q.075-.874.424-1.723.375-.874 1-1.598.624-.725 1.473-1.174.874-.45 1.947-.45.45 0 .874.2.425.175.425.6 0 .374-.2.574-.2.2-.474.2-.225 0-.5-.125-.25-.125-.674-.125-.7 0-1.398.424-.7.4-1.274 1.1-.574.698-.924 1.572-.325.85-.325 1.723v6.168q0 .3-.224.525-.225.225-.525.225zm20.202-6.393q0 1.898-.824 3.421-.824 1.498-2.247 2.372-1.424.85-3.246.85-1.773 0-3.222-.85-1.423-.874-2.272-2.372-.824-1.523-.824-3.421 0-1.923.824-3.421.849-1.499 2.272-2.373 1.449-.874 3.222-.874 1.822 0 3.246.874 1.423.874 2.247 2.373.824 1.498.824 3.42zm-1.498 0q0-1.523-.624-2.697-.624-1.199-1.723-1.873-1.074-.7-2.472-.7-1.349 0-2.448.7-1.098.674-1.748 1.873-.624 1.174-.624 2.697 0 1.523.624 2.697.65 1.173 1.748 1.873 1.1.674 2.448.674 1.398 0 2.472-.674 1.099-.7 1.723-1.873.624-1.174.624-2.697zm10.313-6.668q1.2 0 2.198.275.999.25 1.598.7.624.449.624.973 0 .25-.174.5-.175.224-.475.224t-.5-.15q-.174-.15-.374-.35-.175-.199-.524-.374-.325-.15-.924-.274-.6-.125-1.374-.125-1.398 0-2.522.699-1.124.7-1.773 1.898-.65 1.174-.65 2.647 0 1.498.625 2.697.625 1.198 1.723 1.898 1.099.674 2.572.674 1 0 1.549-.175.549-.175.949-.4.474-.274.674-.524.225-.275.574-.275.325 0 .475.2.174.175.174.475 0 .4-.599.899-.574.474-1.598.849-1.024.35-2.347.35-1.873 0-3.297-.875-1.398-.874-2.197-2.372-.774-1.523-.774-3.421 0-1.823.799-3.321.799-1.499 2.222-2.398 1.449-.924 3.346-.924zm8.216 13.06q-.324 0-.55-.224-.199-.225-.199-.525v-16.98q0-.3.2-.525.225-.225.55-.225.324 0 .524.225.224.225.224.525v16.98q0 .3-.224.525-.2.225-.525.225zm8.49-12.81q.275 0 .5.25.225.225.225.5 0 .324-.275.574l-8.39 7.142-.075-1.773 7.491-6.443q.225-.25.525-.25zm.2 12.81q-.324 0-.55-.274l-5.693-6.043 1.124-1.024 5.644 6.018q.224.25.224.574 0 .35-.274.55-.275.2-.475.2zm8.99.25q-1.923 0-3.396-.824-1.473-.824-2.297-2.297-.825-1.473-.825-3.446 0-2.123.825-3.621.849-1.498 2.172-2.298 1.349-.824 2.847-.824 1.099 0 2.122.4 1.05.375 1.848 1.149.824.749 1.299 1.848.5 1.098.55 2.547-.026.3-.25.524-.225.2-.525.2h-10.013l-.3-1.349h9.839l-.325.3v-.5q-.1-1.173-.75-1.997-.648-.824-1.572-1.249-.924-.424-1.923-.424-.75 0-1.548.3-.774.3-1.424.948-.624.625-1.024 1.623-.4.974-.4 2.323 0 1.473.6 2.672t1.723 1.898q1.149.699 2.722.699.874 0 1.573-.25.7-.25 1.224-.65.524-.424.874-.873.275-.225.55-.225.25 0 .424.2.2.2.2.45 0 .3-.25.524-.75.899-1.948 1.573-1.198.65-2.622.65zm7.517-12.96h5.818q.3 0 .5.225.2.2.2.5 0 .274-.2.474-.2.2-.5.2h-5.818q-.3 0-.525-.2-.2-.225-.2-.5 0-.3.2-.5.225-.199.525-.199zm2.572-3.521q.324 0 .524.225.225.224.225.524V62.7q0 .7.175 1.049.2.35.5.474.299.1.598.1.2 0 .35-.05.175-.075.375-.075.224 0 .374.175.175.175.175.45 0 .35-.4.599-.4.225-.949.225-.224 0-.674-.025-.45-.05-.924-.275-.474-.25-.799-.85-.3-.598-.3-1.722v-12.61q0-.3.2-.525.225-.225.55-.225z" transform="translate(-172.818 -42.757)"/>
        <path style="font-style:normal;font-weight:600;font-family:Quicksand;-inkscape-font-specification:'Quicksand Semi-Bold'" d="M280.848 64.372q0 .55-.35.924-.35.35-.899.35-.524 0-.899-.35-.35-.375-.35-.924V53.684q0-.55.35-.899.375-.374.9-.374.548 0 .898.374.35.35.35.9zm-1.274-13.61q-.724 0-1.049-.25-.324-.274-.324-.898v-.4q0-.624.35-.874.349-.25 1.048-.25.75 0 1.074.275.325.25.325.85v.399q0 .649-.35.899-.325.25-1.074.25zm10.463 1.449q1.349 0 2.398.3 1.048.274 1.623.799.6.499.6 1.173 0 .425-.25.8-.25.349-.75.349-.35 0-.6-.125-.224-.125-.424-.3-.2-.174-.5-.35-.274-.149-.823-.249-.525-.1-.95-.1-1.323 0-2.297.6-.948.599-1.498 1.623-.524 1.024-.524 2.322 0 1.299.524 2.322.55 1.024 1.474 1.624.948.599 2.197.599.75 0 1.224-.1.474-.125.824-.3.374-.224.624-.45.275-.249.75-.249.549 0 .823.35.3.324.3.824 0 .55-.674 1.074-.65.5-1.748.824-1.1.324-2.423.324-1.947 0-3.396-.899-1.423-.899-2.222-2.447-.774-1.548-.774-3.496 0-1.973.824-3.496.824-1.548 2.297-2.447 1.473-.9 3.371-.9zm19.728 6.867q0 1.998-.874 3.546-.874 1.523-2.372 2.397-1.499.874-3.372.874-1.872 0-3.37-.874-1.5-.874-2.398-2.397-.874-1.548-.874-3.546 0-2.023.874-3.546.899-1.548 2.397-2.422 1.499-.9 3.371-.9 1.873 0 3.372.9 1.498.874 2.372 2.422.874 1.523.874 3.546zm-2.497 0q0-1.373-.55-2.372-.549-1.024-1.498-1.598-.924-.6-2.073-.6-1.148 0-2.097.6-.95.574-1.498 1.598-.55.999-.55 2.372 0 1.324.55 2.347.549 1.024 1.498 1.599.949.574 2.097.574 1.15 0 2.073-.574.949-.575 1.498-1.599.55-1.023.55-2.347zm12.086-6.867q1.773 0 2.747.749.974.724 1.348 1.973.4 1.223.4 2.747v6.692q0 .55-.375.924-.35.35-.874.35-.549 0-.899-.35-.35-.375-.35-.924v-6.667q0-.9-.249-1.599-.25-.724-.874-1.148-.6-.45-1.698-.45-1.024 0-1.798.45-.774.424-1.224 1.148-.424.7-.424 1.599v6.667q0 .55-.375.924-.35.35-.874.35-.549 0-.899-.35-.35-.375-.35-.924V53.784q0-.55.35-.899.35-.375.9-.375.524 0 .873.375.375.35.375.899v1.398l-.45.25q.175-.55.6-1.099.45-.574 1.074-1.048.624-.5 1.398-.775.774-.3 1.648-.3zm7.192 11.387q-.225-.35-.2-.8.025-.474.525-.798.35-.225.724-.175.4.025.749.375.7.774 1.548 1.223.874.45 2.098.45.5-.025 1.024-.15.524-.15.899-.5.374-.374.374-1.073 0-.625-.4-1-.399-.374-1.048-.599-.65-.25-1.399-.45-.799-.224-1.623-.499-.799-.274-1.448-.699-.65-.45-1.074-1.148-.4-.7-.4-1.724 0-1.173.65-2.022.674-.85 1.723-1.324 1.074-.474 2.322-.474.724 0 1.524.2.799.174 1.548.574.749.4 1.298 1.049.25.324.275.774.05.45-.4.799-.3.25-.724.225-.424-.025-.699-.275-.474-.6-1.224-.924-.749-.35-1.698-.35-.474 0-.999.15-.499.125-.849.475t-.35 1.024q0 .624.4.998.425.375 1.1.625.673.25 1.472.45.775.199 1.524.474.774.274 1.373.724.625.424 1 1.124.399.674.399 1.723 0 1.223-.725 2.097-.699.85-1.798 1.299-1.073.45-2.272.45-1.423 0-2.847-.5-1.398-.524-2.372-1.798z" transform="translate(-172.818 -42.757)"/>
    </g>
    <path fill="#38bdf8" fill-rule="evenodd" d="M9.51 64.652c-1.02.477-1.418 1.285-1.196 2.424.144-.689.5-1.089 1.07-1.2.324-.063.631.05.97.176.553.205 1.193.442 2.14-.001 1.02-.477 1.418-1.285 1.196-2.424-.144.689-.5 1.089-1.07 1.2-.324.063-.63-.05-.97-.176-.553-.205-1.193-.442-2.14.001zm-.838 3.189c-1.02.477-1.418 1.285-1.195 2.424.143-.689.5-1.089 1.07-1.2.324-.064.63.05.97.176.553.205 1.193.442 2.14-.002 1.02-.477 1.418-1.285 1.196-2.424-.144.689-.5 1.089-1.07 1.2-.325.063-.631-.05-.97-.176-.554-.205-1.193-.442-2.14.001z" clip-rule="evenodd" clip-path="url(#clipPath2)" style="display:inline;fill:#38bdf8;fill-opacity:1;stroke:none;stroke-width:.156331;stroke-opacity:1" transform="translate(-1.696 -43.737)"/>
    <path d="M29.422 48.54a.228.228 0 0 0-.17-.175c-2.814-.689-9.314 1.763-12.839 5.286-.628.623-1.201 1.3-1.712 2.022-1.087-.098-2.173-.016-3.098.388-2.613 1.149-3.373 4.148-3.585 5.436 6.3-1.352 9.817 1.76 8.25 8.251 1.289-.207 4.295-.967 5.437-3.579.403-.926.486-2.007.393-3.088a15.207 15.207 0 0 0 2.027-1.712c3.538-3.518 5.975-9.875 5.297-12.829zm-8.441 8.271c-1.392-1.392-.407-3.771 1.562-3.771 1.968 0 2.954 2.38 1.562 3.771a2.207 2.207 0 0 1-3.124 0z" style="display:inline;fill:none;fill-opacity:1;stroke:#fff;stroke-width:1.16369;stroke-linecap:round;stroke-linejoin:round;stroke-dasharray:none;stroke-opacity:1" transform="translate(-1.696 -43.737)"/>
</svg>
